/* XPM */
static char *d9b5577a01474efe9ea676545b783a19GDzUxLEbR0OKYLZK[] = {
/* columns rows colors chars-per-pixel */
"64 64 3 1 ",
"  c None",
". c black",
"X c #FFF2F2",
/* pixels */
"                                                                ",
"                                                                ",
"                                                                ",
"                                                                ",
"                                                                ",
"                                                                ",
"                                                                ",
"                                                                ",
"                                                                ",
"                                                                ",
"                                                                ",
"                                                                ",
"                                                                ",
"                                                                ",
"                                                                ",
"                                                                ",
"                       ....                                     ",
"                     ..XXXX...       ..........                 ",
"                    .XXXXXXXXX.  ....XXXXXXXXXX.                ",
"                   .XXXXXXXXXXX..XXXXXXXXXXXXXX ..              ",
"                  .XXXXXXXXXXXXXXXXXXXXXXXXXXXXXXX.             ",
"                ..XXXXXXXXXXXXXXXXXXXXXXXXXXXXXXXXX..           ",
"              ..XXXXXXXXXXXXXXXXXXXXXXXXXXXXXXXXXXXXX.          ",
"             .XXXXXXXXXXXXXXXXXXXXXXXXXXXXXXXXXXXXXXXX.         ",
"            .XXXXXXXXXXXXXXXXXXXXXXXXXXXXXXXXXXXXXXXXXX.        ",
"           .XXXXXXXXXXXXXXXXXXXXXXXXXXXXXXXXXXXXXXXXXXXX.       ",
"           .XXXXXXXXXXXXXXXXXXXXXXXXXXXXXXXXXXXXXXXXXXXX.       ",
"           .XXXXXXXXXXXXXXXXXXXXXXXXXXXXXXXXXXXXXXXXXXXXX.      ",
"           .XXXXXXXXXXXXXXXXXXXXXXXXXXXXXXXXXXXXXXXXXXXXX.      ",
"            .XXXXXXXXXXXXXXXXXXXXXXXXXXXXXXXXXXXXXXXXXXXX.      ",
"            .XXXXXXXXXXXXXXXXXXXXXXXXXXXXXXXXXXXXXXXXXXXX.      ",
"             .XXXXXXXXXXXXXXXXXXXXXXXXXXXXXXXXXXXXXXXXXXX.      ",
"              .XXXXXXXXXXXXXXXXXXXXXXXXXXXXXXXXXXXXXXXXXX.      ",
"             .XXXXXXXXXXXXXXXXXXXXXXXXXXXXXXXXXXXXXXXXXXXX.     ",
"            .XXXXXXXXXXXXXXXXXXXXXXXXXXXXXXXXXXXXXXXXXXXXX.     ",
"            .XXXXXXXXXXXXXXXXXXXXXXXXXXXXXXXXXXXXXXXXXXXXX.     ",
"            .XXXXXXXXXXXXXXXXXXXXXXXXXXXXXXXXXXXXXXXXXXXXX.     ",
"             .XXXXXXXXXXXXXXXXXXXXXXXXXXXXXXXXXXXXXXXXXXXX.     ",
"              .XXXXXXXXXXXXXXXXXXXXXXXXXXXXXXXXXXXXXXXXXX.      ",
"               .XXXXXXXXXXXXXXXXXXXXXXXXXXXXXXXXXXXXXXXX.       ",
"               .XXXXXXXXXXXXXXXXXXXXXXXXXXXXXXXXXXXXX...        ",
"                .XXXXXXXXXXXXXXXXXXXXXXXXXXXXXXXXX...           ",
"                 .XXXXXXXXXXXXXXXXXXXXXXXXXXXXXXX.              ",
"                  .XXXXX..XXXXXXXXXXXXXXXXXXXXXX.               ",
"                   .....  .XXXXXXXX....XXXXXXXX.                ",
"                           ........    ...XXX..                 ",
"                                          ...                   ",
"                                                                ",
"                                                                ",
"                                                                ",
"                                                                ",
"                                                                ",
"                                                                ",
"                                                                ",
"                                                                ",
"                                                                ",
"                                                                ",
"                                                                ",
"                                                                ",
"                                                                ",
"                                                                ",
"                                                                ",
"                                                                ",
"                                                                "
};
