/* XPM */
static char *_1088769e78d4898d3a22db6c770c84eIQlOhdQExfIfYWFg[] = {
/* columns rows colors chars-per-pixel */
"16 16 8 1 ",
"  c None",
". c #25131A",
"X c #373737",
"o c #895A45",
"O c #BF704D",
"+ c #62ABD4",
"@ c #90919E",
"# c #ADC1CF",
/* pixels */
"++            ++",
"+   ......     +",
"   .#@@@@@.     ",
"  .#@...... ..  ",
"  .@@.#.#.#..#. ",
"  .@#.#.#.#..#. ",
"  .@#######..O  ",
"  ..@@@..@..o.  ",
" ..X.@@@@.....  ",
".@#.XX.#.X#oO.  ",
".@#.X.@@#X#.O.  ",
".o..XX.#.X....  ",
"...XOO.#.O..o.  ",
" .XXXXX.XXX.O.  ",
"+.XXXX.o.XX.o. +",
"++            ++"
};
