/* XPM */
static char *_24ecf728b564afaf26c99489c1c954bbhhbpH1FzOFgwxpr[] = {
/* columns rows colors chars-per-pixel */
"64 64 5 1 ",
"  c None",
". c #472108",
"X c #7E3E14",
"o c #945429",
"O c #8D8D8D",
/* pixels */
"                                                                ",
"                                                                ",
"                                                                ",
"                                                                ",
"                                                                ",
"                                                                ",
"                                                                ",
"                                                                ",
"                                                                ",
"                                                                ",
"                                                                ",
"                                                                ",
"                                                                ",
"                                                                ",
" XXXXXXXXXXXXXXXooooooXXXXXXXXXXXXXXXXXXXXXXXXXXXXXX..XXXXXXXXX ",
" oooXXXXXXXXXXoooXXXXoXXXXooXXXXXXXXXXXXXXXXXXXXXXX...XXXXXXXoX ",
" oXXX....XXOXXXXXXXXXXXXXXXoXXXXXXXXXXooXXXXX..XX.....XXXXXXooX ",
" ooX.....XXXXXXXX..XXXXXXXXooXXX...XXXXoXXXX...X...X.XXXXXXXXoX ",
" XX.XX...XXXXoXXX....XXXXXXXoXX....XXXooXXXX...X..XXXXXXXXXXooX ",
" X..XX..XXXXXoXXXXX...XXXXXXoXXXXXXXXXooXXXX...XXXXXOOXXXXXXooX ",
" X.XXX..XXXXooXOOXXX...XXXXXXoXXXXXXXXooXXXX...XXXXXXOXXXXXoooX ",
" XXXOOXXXXXooXXOXXXX...XXXXXOOOXXXXXXXoXXXXXXXXXXXXXXOXXXXXoooX ",
" XXXXXXXXXXoXXXOXXXX..XXXXXXXOXXXXXXXXXXXXXXXXXXXXXXXXXXXXXooXX ",
" XXXXXXXXXXXXXXXXXXXXXXXXXXXXXXXXXXXXXXXXXXXXXXXXXXXXXXXXXXXXXX ",
" XXXXXXXXXXXXXXXXXXXXXXX.XXXXXX...XXXXXXXXXXXXXXXXXXXXXXXXXOOXX ",
" XX..XXXXXXXoXXXXXXXXXX..XXXXX....XXXXXXXXXXXXXXXXXX....XXXXOXX ",
" XXX..XXXXXXoXXXXXXXX...XXXXXX.X.XXXXXXXXXXXXXXXXXXXX...XXoXXXX ",
" XXXX.XXXXoooXXXXXXXX..XXXXXXXXX.XooXXXXX.XXXXXXoooXXX..XXoXXXX ",
" XXXXXXXXXooXXXXXXXXXXXXXXXooXXXXXoooXXXX...XXXXoooXXXXXXXoXXXX ",
" XXXOXXXXXXXXXXXXXXXXXXXXXXXoXXXXXoooXXXXXX.XXXXXXXXXXXXXooXX.. ",
" XXXXXXXXXXXXXXXXXXXXOOXXXXooXXXXXXXXXXXoXXXXXXXXXXXXXXXXooX... ",
" XXXXXXXXXXXXXXXXXXXXOOXXXXXXXXXXXXXXXXXoXXXXXXXXXXXOXXXXoXX... ",
" XoXXXXXXXXXXXXXX.XXXXXXXXXXXXXXXOOXXXXXoXXXXXXXXXOOXXXXooXX... ",
" XoooXXXX..XXXXXX..XXXXXXXXXX.XXXXOOXXXooooXXXXXXXOOXXXXoXXX..X ",
" XXXXoXX..XoXXXXXX.XXXXXXXXX..XXXXXXXXXXXXXXXXXXXXXXXXXoXXXX..X ",
" XXXXXO.XXXoXXXXXXXXXXXXXXX...XXXXXXXXXXXXXXXXXXXXXXXXXoXXXX..X ",
" XXXXXX.XXXoXXXXXXXXXXXXX..X..XXXXXXXXXXXXXXXXXXoXXXXXXoXXXXXXX ",
" XXoXXXXXXooXXXXXXXXXXoooXXX...XXXooXXXXXXXXXXXXoXXXXXXXXXXXXXX ",
" XXoXXXXXXoXXXXXXXXXXXoooXXXX..XXXoooXXXXXXXXXXXoXXXXXXXXXXXXXX ",
" XooXXXXXXXXXXXXXXOXXXXooXXXX.XXXooooXXXX..XXXXoXXXXXXXXXXXX.XX ",
" XXXXXXoXXXXXXXXXXXXXXXXXXXXX..XXoXXXXXXX..XXXXoooXXXXXXXX....X ",
" XXXXXXoXXXXXXXXXXXXXXXXXXXXXX.XoXXXXXXX...XXXXXooXXXXXXXXX..XX ",
" XXXXXooXXXOXXX.XXXXXXXXXXXXXXXXoXXXXXXX..XXXXXXXXXXXXXXooX.XXX ",
" XXXXXXXXXOOOXX..XXXXXXXXX.XXXXXXXXXXXXX..XXXXXXXX.XXXooXXXXXXX ",
" XXXX.XXXXXXXXX..XXXXXXXXX..XXXXXXXXXXXXXXXXXXXX...XXXXXXXOXXXX ",
" XXXX..XXXXXXXXXXXXooXXXXXXXXXXXXXOXXXXXXXXXXXXXX..XXXXXXXOXXXX ",
" XXXXX.XXXXXXXoXXXXXXXXXXXXXXXXXXXXXXXXXXXXXXXXXX..XXXXXXXXXXXX ",
" XXoXXXXXXXXXXoXXXXXXXXXXXooooXXXXXXXXXXXXoXXXXXXXXXXXXXXXXXXXX ",
" XXooXXXXXXXXooXXXXXXXXXXXXXXoXXXXXXX.XXXXooXXXXXOXXXXXXXXXXXXX ",
" XXooXXXXXXXXXXXXXXX.XXXXXXXXoXXXXXX..XXXXXoXXXXXOOOXXXXXXXXoXX ",
" XXXXXXXOOXXXXXXXXX..XXXXOXXXXXXXXXX..XOXXXoXXXXXXXXXXXXXXXooXX ",
" XXXXXXOOXXXXXoXXX..XXXXOOXXXXXXXXXX.XXOOXXXXX.XXXXXXXXXX..XXXX ",
" XXX.XXOOXXXXooXXXXoXXXXXXXXXXXXooXXXXXXOXXXX..XXoooooXXX..XXXX ",
" XX..XXXXXXXooXXXXXXoXXXoXXXXXoooXXXXXXXXXXXX..XXoXXXXXXX...XXX ",
" XXXXXXXXXXXXXXXXXXXXooooXXXXXXXXXXXXXXXXXXXXXXXXXXXXXXXXX..XXX ",
"                                                                ",
"                                                                ",
"                                                                ",
"                                                                ",
"                                                                ",
"                                                                ",
"                                                                ",
"                                                                ",
"                                                                "
};
