/* XPM */
static char *_88c937181ed4f2d881a4aa91c7b51c54fhJT82afU2ae5px[] = {
/* columns rows colors chars-per-pixel */
"64 64 11 1 ",
"  c None",
". c black",
"X c #040101",
"o c #021801",
"O c #200C04",
"+ c #341406",
"@ c #063E05",
"# c #421704",
"$ c #63290F",
"% c #358E33",
"& c #6ACC68",
/* pixels */
"                                                                ",
"                                  .......                       ",
"                  ............   .&&&&&&&XX...                  ",
"                ..&&&&&&&&&&&&...&&&&&&&&&&&&&..                ",
"               .&&&&&&&&&&&&&&&X.&&&&&&&&&&&&&&&.               ",
"              X&&&&&&&&&&&&&&&&X&&&&&&&&&&&&&&&&&.              ",
"             X&&&&&&&&&&&&&&&%%X%%&&&&&&&&&&&&&&&.              ",
"            .&&&&&&&&&&&&&&%%%X%%%%&&&&&&&&&&&&&&.              ",
"           .&&&&&&&&&&&&%%%%%X%%%%%%%%&&&&&&&&&&&.              ",
"          .&&&&&&%%%%%%%%%%%XX%@@X%%%%%%%%&&&&&&&.              ",
"         X&&&&&&%%%%%%%%%%XX%%%@@@@%%%%%%%%%%%%&&.              ",
"         X&&&&&%%%%X%%XXX%%%%@@@@X@@%%%%%%%%%%@@@.              ",
"         X&&&%%%%%%%%%%%%%%@@@@@@@X@@@%@@@@@@@@@@.              ",
"         .&%%%%%%%%%%%@@@@@@@@@@@@X@@@@@@@@@@@@....             ",
"         .&%%%%%%%%%@@@@@@@..XXX@@@XX@@@@@@@@@&&&&&X.           ",
"         .%%%%%%%X@@@@@@..@%%%%X.@%&&X@XXXX@&&&&&&&&&.          ",
"          .%%%%%%%@@@@@@.%&&&&&%..@&&&&&&%%X%&&&&&&&&&X         ",
"          .%%%%%@@@@@@XX&&&&&&&&%%.&&&&&&&&XX%&&&&&&&&&.        ",
"          ..%%%X@@@@@.&&&&&&&&&&&&XX&&&&&&&%XXX&&&&&&&&.        ",
"          .&.%X&X@@@X&&&&&&&&&&&&&&X&&&&&&&&%XX%%%&&&%%X        ",
"         .&&&.&&&X@%%&&&&&&&&&&&&&&&&&&&&&&&%%%%%%%%%%%X        ",
"         .&&&&&&&XX%%%&&&&&&&&&&&&&&&&&&&&&&%%%%%%%%%%%X        ",
"         .&&&&&&&%%%%%%&&&&&&&&&&%%%&&&&&&%%%%%%%%%%%%%.        ",
"         .&&&&&&%%%%%%%%%&&&&&&&%%%%%%&&&%%%%%%%%%%XXXX.        ",
"         .&&&&&%%%%%%%%%%%&%&&%%@XX%%%%%%%%%%%%%XXXX@@XXX.      ",
"         .&&&&@XXXXXX%%%%%%%%%%@@X@@%%%%%%%%%%@X@@@@@@@@@.      ",
"        .&&&@@@@@@@@XX%@@%%%%@@@@X@@%%%%%%%%%@@@@@@@@@@@@.      ",
"        .&&@@@@@@@@@@@@@@@@@@@@@@@@@@%%%%%%@@@@@@@@@@@@@@.      ",
"        .&@@@@@@@@@@@@@@@@@@@@@@@@X@@@@%%%@@@@@XX@@@@@@@@.      ",
"        .o@@@@@@@@@@@@@@XX@@@@@@@@X@@@@@@@@@@@XX@@@@@@@o@.      ",
"        .oo@@@@@@@@@@@@@@X@@@@@@@@@XX@@@@@@X@@X@@@@@@@oo.       ",
"        .ooo@@@@@@@@@@@@@@X@@@@@@@@@@XXXXX@@@@@@@@@@oooo.       ",
"         .oooo@o@@.@@@@@@@X@@@@@@@@@@@@@@@@@@@@@@@oooooo.       ",
"         .oooooo@.@@@@@@@@@@@@@@@@@@@@@@@@@@@@oooooooooo.       ",
"          .oooooo.o@@@@@@@@oX@@@@@@@@@@@@@@ooooooooooo..        ",
"          .ooooo.ooooo@@@@ooXoo@@@@@@@@@ooooooXooooo..          ",
"           ...o.ooooooooooooXXoo@@@@@@oooooooXXoooo.            ",
"              .oooooooooooooo.oooooooooooooooXooooo.            ",
"               .oooooooooooooo.oooooooooooooXXoooo.             ",
"               .oooooooooooooo.ooooooooooooXXooooo.             ",
"                .oooooooooooooo.oooooooooXXXooooo.              ",
"                 ..oooooooo.oo...ooooooo.........               ",
"                   ..oooooo....OO..oooo..                       ",
"                     ........O###O.X....                        ",
"                           .O+####$O.                           ",
"                           .$+###+$.                            ",
"                           .$++$#+$.                            ",
"                           .$+$O$+$.                            ",
"                           .$#$O$#$.                            ",
"                           .$+#$+#$.                            ",
"                           .$+##+#$.                            ",
"                           .$+##+#$.                            ",
"                           .$#####$.                            ",
"                          .$O##+###$.                           ",
"                         .$OOX###XO#$.                          ",
"                        .$OXXOO##OXXO$.                         ",
"                       .OO.OOOOOOOOO.OO.                        ",
"                      ...................                       ",
"                                                                ",
"                                                                ",
"                                                                ",
"                                                                ",
"                                                                ",
"                                                                "
};
