/* XPM */
static char *_a27688ebdaa44c0f686b49deac6dd5bfDdms3U6qmmvEoLV[] = {
/* columns rows colors chars-per-pixel */
"16 16 2 1 ",
"  c None",
". c #CAE6F5",
/* pixels */
"                ",
"                ",
"                ",
"                ",
"                ",
"       ..       ",
"                ",
"       ..       ",
"       ..       ",
"    ........    ",
"     ......     ",
"      .  .      ",
"       ..       ",
"                ",
"                ",
"                "
};
