/* XPM */
static char *_466941eee0642eaea1a759b8a91d2acvn8k6iYPdbEUZPlR[] = {
/* columns rows colors chars-per-pixel */
"16 16 2 1 ",
"  c None",
". c #CAE6F5",
/* pixels */
"                ",
"                ",
"                ",
"                ",
"                ",
"                ",
"                ",
"       ..       ",
"                ",
"       ..       ",
"       ..       ",
"    . .... .    ",
"     . .. .     ",
"      .  .      ",
"       ..       ",
"                "
};
