/* XPM */
static char *_a9179703b5b4c46f9735193b46624bdwRLsWkO4xV9Ph9GB[] = {
/* columns rows colors chars-per-pixel */
"64 64 6 1 ",
"  c None",
". c black",
"X c #361706",
"o c #673418",
"O c #814E31",
"+ c #FFFBF9",
/* pixels */
"                                                                ",
"                                                                ",
"                                                                ",
"                                                                ",
"                                                                ",
"                                                                ",
"                                                                ",
"                                                                ",
"                                                                ",
"                                                                ",
"                                                                ",
"                                                                ",
"                                                                ",
"                                                                ",
"                                                                ",
"                                                                ",
"                                                                ",
"                                                                ",
"                                                                ",
"                                                                ",
"                                                                ",
"                                                                ",
"                                                                ",
"                                                                ",
"                                                                ",
"                                  .                             ",
"                                 .O. .....                      ",
"                                 .O..OOOOO.                     ",
"                                 ..OOOOOOO.                     ",
"                                .OOOOOOOOO.                     ",
"                              ..OOOOOOOoooo.                    ",
"                            ..OOOOOOOOOoooo.                    ",
"                           .OOOOOOOOooooooo.                    ",
"                          .OOOOOOOo+ooooooo.                    ",
"                         .OOOOOOOoooooooooo.                    ",
"                        .OOOOO++ooo+ooooooo.                    ",
"                        .OOOO+oo+oo+ooooooX.                    ",
"                        .OOOo+oo+oo+oooooXX.                    ",
"                        .OOooo++ooooooXXXXX.                    ",
"                         .OooooooooooXXXXXX.                    ",
"                         .ooooooooXXXXX....                     ",
"                         .oooooXXXXX...                         ",
"                         .oooXXXX...                            ",
"                          .XXX....X.                            ",
"                           ...   .X.                            ",
"                                 .X.                            ",
"                                 .X.                            ",
"                                 .X.                            ",
"                                 .X.                            ",
"                                 .X.                            ",
"                                 .X.                            ",
"                                  .                             ",
"                                                                ",
"                                                                ",
"                                                                ",
"                                                                ",
"                                                                ",
"                                                                ",
"                                                                ",
"                                                                ",
"                                                                ",
"                                                                ",
"                                                                ",
"                                                                "
};
